<svg width="48" height="57" viewBox="0 0 48 57" fill="none" xmlns="http://www.w3.org/2000/svg">
<path d="M42 23.75C42 40.375 24 54.625 24 54.625C24 54.625 6 40.375 6 23.75C6 18.081 7.89642 12.6442 11.2721 8.63559C14.6477 4.627 19.2261 2.375 24 2.375C28.7739 2.375 33.3523 4.627 36.7279 8.63559C40.1036 12.6442 42 18.081 42 23.75Z" stroke="black" stroke-width="2" stroke-linecap="round" stroke-linejoin="round"/>
<path d="M24 30.875C27.3137 30.875 30 27.685 30 23.75C30 19.815 27.3137 16.625 24 16.625C20.6863 16.625 18 19.815 18 23.75C18 27.685 20.6863 30.875 24 30.875Z" stroke="black" stroke-width="2" stroke-linecap="round" stroke-linejoin="round"/>
</svg>
