<svg width="50" height="59" viewBox="0 0 50 59" fill="none" xmlns="http://www.w3.org/2000/svg">
<path d="M45.832 41.5952V48.9702C45.8344 49.6548 45.7155 50.3325 45.4831 50.9598C45.2506 51.5872 44.9097 52.1503 44.4822 52.6131C44.0546 53.076 43.5499 53.4283 43.0002 53.6477C42.4506 53.867 41.8682 53.9485 41.2903 53.8869C34.8796 53.0649 28.7216 50.48 23.3112 46.3398C18.2775 42.5654 14.0098 37.5295 10.8112 31.5898C7.2903 25.1765 5.09919 17.8747 4.41535 10.276C4.36329 9.59622 4.43175 8.91107 4.61639 8.26419C4.80103 7.61732 5.09779 7.02289 5.48778 6.51877C5.87777 6.01464 6.35244 5.61186 6.88158 5.33606C7.41072 5.06027 7.98272 4.91751 8.56118 4.91686H14.8112C15.8222 4.90512 16.8024 5.3276 17.569 6.10555C18.3356 6.8835 18.8363 7.96384 18.9778 9.1452C19.2416 11.5054 19.7309 13.8227 20.4362 16.0531C20.7165 16.933 20.7771 17.8893 20.611 18.8086C20.4448 19.7279 20.0588 20.5718 19.4987 21.2402L16.8528 24.3623C19.8186 30.5168 24.1371 35.6127 29.3528 39.1123L31.9987 35.9902C32.5651 35.3292 33.2802 34.8737 34.0593 34.6777C34.8384 34.4816 35.6488 34.5532 36.3945 34.8839C38.2847 35.7162 40.2485 36.2935 42.2487 36.6048C43.2607 36.7733 44.1849 37.3747 44.8456 38.2949C45.5063 39.215 45.8574 40.3896 45.832 41.5952Z" stroke="black" stroke-width="2" stroke-linecap="round" stroke-linejoin="round"/>
</svg>
