<svg width="104" height="104" viewBox="0 0 104 104" fill="none" xmlns="http://www.w3.org/2000/svg">
<g filter="url(#filter0_d_386_901)">
<circle cx="52" cy="42" r="32" fill="white"/>
</g>
<path d="M63.3981 48.7988C63.3981 48.2908 62.9863 47.8789 62.4783 47.8789C58.9764 47.8789 56.2253 44.9538 56.9834 41.535C57.2524 40.3219 57.5536 39.1151 57.8515 37.9219C58.7695 34.2448 59.7187 30.4427 59.7187 26.5993C59.7187 24.0633 57.6554 22 55.1193 22H36.5993C34.0633 22 32 24.0633 32 26.5993C32 27.1073 32.4119 27.5192 32.9199 27.5192C36.422 27.5192 39.1732 30.4446 38.4148 33.8636C38.1457 35.0765 37.8445 36.2832 37.5466 37.4763C36.6286 41.1533 35.6795 44.9555 35.6795 48.7988C35.6795 51.3349 37.7427 53.3981 40.2788 53.3981H58.7988C61.3349 53.3981 63.3981 51.3349 63.3981 48.7988ZM36.5993 25.6795C35.33 25.6795 34.5989 24.3139 35.8158 23.953C36.0643 23.8793 36.3273 23.8397 36.5993 23.8397C36.8714 23.8397 37.1344 23.8793 37.3829 23.953C38.5998 24.3139 37.8687 25.6795 36.5993 25.6795ZM37.5192 48.7988C37.5192 45.1816 38.4405 41.491 39.3315 37.9219C40.2495 34.2448 41.1987 30.4427 41.1987 26.5993C41.1987 25.3806 42.0186 23.8397 43.2372 23.8397H55.1193C56.641 23.8397 57.8789 25.0777 57.8789 26.5993C57.8789 30.2165 56.9576 33.9071 56.0666 37.4763C55.8354 38.4023 55.6023 39.3364 55.3828 40.277C54.4059 44.465 50.8155 47.8789 46.5151 47.8789H43.9583C43.4503 47.8789 43.0384 48.2908 43.0384 48.7988C43.0384 50.3204 41.8004 51.5584 40.2788 51.5584C38.7572 51.5584 37.5192 50.3204 37.5192 48.7988ZM58.7988 51.5584H45.4009C44.8058 51.5584 44.434 50.8568 44.6283 50.2943C44.7403 49.9702 45.0321 49.7187 45.375 49.7187H58.0044C59.6609 49.7187 60.4553 51.5584 58.7988 51.5584Z" fill="#2E90FA"/>
<path d="M43.9582 31.1986H54.8123C55.3203 31.1986 55.7322 30.7868 55.7322 30.2788C55.7322 29.7707 55.3203 29.3589 54.8123 29.3589H43.9582C43.4502 29.3589 43.0383 29.7707 43.0383 30.2788C43.0383 30.7868 43.4502 31.1986 43.9582 31.1986Z" fill="#07294D"/>
<path d="M43.0949 34.8781H54.0754C54.5834 34.8781 54.9952 34.4662 54.9952 33.9582C54.9952 33.4502 54.5834 33.0383 54.0754 33.0383H43.0949C42.5869 33.0383 42.175 33.4502 42.175 33.9582C42.175 34.4662 42.5869 34.8781 43.0949 34.8781Z" fill="#07294D"/>
<path d="M-nan -nanL42.2329 38.5576H53.1653C53.6734 38.5576 54.0852 38.1458 54.0852 37.6378C54.0852 37.1298 53.6734 36.7179 53.1653 36.7179H42.2329C41.7248 36.7179 41.313 37.1298 41.313 37.6378C41.313 38.1458 41.7248 38.5576 42.2329 38.5576L-nan -nanZ" fill="#07294D"/>
<path d="M41.3227 42.2371H52.3032C52.8112 42.2371 53.2231 41.8252 53.2231 41.3172C53.2231 40.8092 52.8112 40.3973 52.3032 40.3973H41.3227C40.8147 40.3973 40.4028 40.8092 40.4028 41.3172C40.4028 41.8252 40.8147 42.2371 41.3227 42.2371Z" fill="#07294D"/>
<circle cx="60.4468" cy="49.6206" r="9.72717" transform="rotate(-60 60.4468 49.6206)" fill="#FFBB38" stroke="white" stroke-width="2"/>
<path d="M60.8873 44.6633C58.4021 44.6633 56.3656 46.5565 56.1318 48.9777C56.107 49.2343 55.9004 49.4439 55.6427 49.4439C55.2268 49.4439 55.0186 49.9466 55.3126 50.2406L56.5783 51.5063C56.5826 51.5106 56.5861 51.5156 56.5888 51.521C56.605 51.5546 56.6495 51.5622 56.6759 51.5358L57.9692 50.2409C58.2631 49.9466 58.0547 49.4439 57.6387 49.4439C57.3808 49.4439 57.1687 49.2337 57.2007 48.9778C57.4301 47.1447 58.9948 45.7257 60.8899 45.7257C62.9429 45.7257 64.6081 47.3909 64.6081 49.4439C64.6081 51.4968 62.9429 53.1621 60.8899 53.1621C60.0537 53.1621 59.2843 52.8843 58.6646 52.4189C58.4298 52.2425 58.0949 52.2389 57.8872 52.4466C57.6797 52.6541 57.6778 52.9931 57.9066 53.1768C58.7227 53.832 59.7584 54.2244 60.8873 54.2244C63.5299 54.2244 65.6705 52.0838 65.6705 49.4439C65.6705 46.8039 63.5299 44.6633 60.8873 44.6633Z" fill="white"/>
<path d="M60.7573 47.3191C60.5372 47.3191 60.3589 47.4975 60.3589 47.7175V49.0162C60.3589 49.6106 60.6722 50.1609 61.1833 50.4642L62.3096 51.1326C62.4878 51.2384 62.718 51.1795 62.8236 51.0013C62.9292 50.8231 62.8703 50.5931 62.6922 50.4875L61.8304 49.9766C61.4121 49.7286 61.1556 49.2784 61.1556 48.7921V47.7175C61.1556 47.4975 60.9773 47.3191 60.7573 47.3191Z" fill="white"/>
<defs>
<filter id="filter0_d_386_901" x="0" y="0" width="104" height="104" filterUnits="userSpaceOnUse" color-interpolation-filters="sRGB">
<feFlood flood-opacity="0" result="BackgroundImageFix"/>
<feColorMatrix in="SourceAlpha" type="matrix" values="0 0 0 0 0 0 0 0 0 0 0 0 0 0 0 0 0 0 127 0" result="hardAlpha"/>
<feOffset dy="10"/>
<feGaussianBlur stdDeviation="10"/>
<feColorMatrix type="matrix" values="0 0 0 0 0 0 0 0 0 0 0 0 0 0 0 0 0 0 0.04 0"/>
<feBlend mode="normal" in2="BackgroundImageFix" result="effect1_dropShadow_386_901"/>
<feBlend mode="normal" in="SourceGraphic" in2="effect1_dropShadow_386_901" result="shape"/>
</filter>
</defs>
</svg>
