<svg width="104" height="104" viewBox="0 0 104 104" fill="none" xmlns="http://www.w3.org/2000/svg">
<g filter="url(#filter0_d_386_891)">
<circle cx="52" cy="42" r="32" fill="white"/>
</g>
<path d="M43.7263 55.4032C43.7263 52.5179 46.0653 50.179 48.9506 50.179H54.4178C57.3031 50.179 59.6421 52.5179 59.6421 55.4032V56.6852C59.6421 59.8629 56.3714 61.9885 53.4676 60.6979C52.3322 60.1933 51.0362 60.1933 49.9008 60.6979C46.997 61.9885 43.7263 59.8629 43.7263 56.6852V55.4032Z" fill="#2E90FA"/>
<path d="M47.6729 24.2567C50.0104 22.3589 53.358 22.3589 55.6955 24.2567C56.6549 25.0356 57.8204 25.5183 59.0496 25.646C62.0444 25.9569 64.4115 28.324 64.7225 31.3188C64.8501 32.548 65.3328 33.7135 66.1117 34.6729C68.0095 37.0104 68.0095 40.358 66.1117 42.6955C65.3328 43.6549 64.8501 44.8204 64.7225 46.0496C64.4115 49.0444 62.0444 51.4115 59.0496 51.7225C57.8204 51.8501 56.6549 52.3328 55.6955 53.1117C53.358 55.0095 50.0104 55.0095 47.6729 53.1117C46.7135 52.3328 45.548 51.8501 44.3188 51.7225C41.324 51.4115 38.9569 49.0444 38.646 46.0496C38.5183 44.8204 38.0356 43.6549 37.2567 42.6955C35.3589 40.358 35.3589 37.0104 37.2567 34.6729C38.0356 33.7135 38.5183 32.548 38.646 31.3188C38.9569 28.324 41.324 25.9569 44.3188 25.646C45.548 25.5183 46.7135 25.0356 47.6729 24.2567Z" fill="#FFBB38"/>
<circle cx="51.6105" cy="38.6105" r="10.1105" stroke="#2E90FA"/>
<path d="M49.7643 34.0205C50.5234 32.6598 52.4766 32.6598 53.2357 34.0205L53.495 34.4852C53.8027 35.0366 54.3528 35.4092 54.9778 35.4895L55.3609 35.5388C56.9716 35.7458 57.5765 37.7677 56.3453 38.8292C55.8346 39.2695 55.6008 39.9611 55.7293 40.624C56.0343 42.1972 54.4396 43.4916 52.9894 42.8171L52.3369 42.5137C51.8061 42.2669 51.1939 42.2669 50.6631 42.5137L50.0106 42.8171C48.5604 43.4916 46.9657 42.1972 47.2707 40.624C47.3992 39.9611 47.1654 39.2695 46.6547 38.8292C45.4235 37.7677 46.0284 35.7458 47.6391 35.5388L48.0222 35.4895C48.6472 35.4092 49.1973 35.0366 49.505 34.4852L49.7643 34.0205Z" fill="white"/>
<defs>
<filter id="filter0_d_386_891" x="0" y="0" width="104" height="104" filterUnits="userSpaceOnUse" color-interpolation-filters="sRGB">
<feFlood flood-opacity="0" result="BackgroundImageFix"/>
<feColorMatrix in="SourceAlpha" type="matrix" values="0 0 0 0 0 0 0 0 0 0 0 0 0 0 0 0 0 0 127 0" result="hardAlpha"/>
<feOffset dy="10"/>
<feGaussianBlur stdDeviation="10"/>
<feColorMatrix type="matrix" values="0 0 0 0 0 0 0 0 0 0 0 0 0 0 0 0 0 0 0.04 0"/>
<feBlend mode="normal" in2="BackgroundImageFix" result="effect1_dropShadow_386_891"/>
<feBlend mode="normal" in="SourceGraphic" in2="effect1_dropShadow_386_891" result="shape"/>
</filter>
</defs>
</svg>
